<?xml version="1.0" standalone="no"?>
<!DOCTYPE svg PUBLIC "-//W3C//DTD SVG 20010904//EN"
 "http://www.w3.org/TR/2001/REC-SVG-20010904/DTD/svg10.dtd">
<svg version="1.0" xmlns="http://www.w3.org/2000/svg"
 width="410.000000pt" height="211.000000pt" viewBox="0 0 410.000000 211.000000"
 preserveAspectRatio="xMidYMid meet">

<g transform="translate(0.000000,211.000000) scale(0.100000,-0.100000)"
fill="#000000" stroke="none">
<path d="M30 2103 c0 -8 55 -90 145 -213 34 -47 111 -155 171 -240 127 -179
193 -271 280 -390 34 -47 78 -109 98 -137 l36 -53 -37 -52 c-38 -55 -122 -172
-277 -388 -49 -69 -114 -159 -143 -200 -30 -41 -86 -120 -126 -175 -40 -55
-90 -126 -112 -158 -22 -32 -46 -66 -54 -77 -13 -20 -10 -20 222 -20 l235 0
84 121 c45 66 90 129 98 139 8 10 44 62 80 115 72 107 151 219 175 250 9 11
63 90 121 175 58 85 139 202 179 260 41 58 93 133 117 168 24 35 50 71 58 82
8 10 40 55 70 100 65 95 145 210 261 375 46 66 97 141 114 165 16 25 32 47 35
50 11 11 70 99 70 104 0 3 -94 6 -209 6 l-208 0 -94 -132 c-51 -73 -137 -198
-191 -276 -113 -165 -139 -202 -153 -218 -5 -7 -27 -37 -48 -68 -21 -31 -42
-56 -46 -56 -4 0 -33 37 -64 83 -31 45 -79 116 -108 157 -29 41 -72 104 -97
140 -24 36 -92 134 -150 218 l-105 152 -214 0 c-117 0 -213 -3 -213 -7z"/>
<path d="M2390 1935 l0 -175 855 0 855 0 -2 173 -3 172 -852 3 -853 2 0 -175z"/>
<path d="M3060 710 l0 -710 185 0 185 0 0 710 0 710 -185 0 -185 0 0 -710z"/>
<path d="M1357 808 c-3 -7 -48 -71 -101 -142 -53 -71 -96 -133 -96 -138 0 -5
26 -44 58 -88 31 -44 77 -109 102 -145 25 -36 81 -116 125 -178 l81 -112 217
-3 218 -2 -43 59 c-24 32 -49 67 -56 78 -7 10 -46 65 -87 123 -185 262 -313
445 -350 499 -40 59 -58 72 -68 49z"/>
</g>
</svg>
