<svg width="100" height="60" viewBox="0 0 100 60" fill="none" xmlns="http://www.w3.org/2000/svg">
<path d="M2.55209 6.12848C2.62154 6.26736 6.45834 11.6493 11.0764 18.1076L19.4618 29.8611L10.7465 42.0486C5.97223 48.75 2.0139 54.3403 1.96181 54.4618C1.89237 54.6528 2.84723 54.6875 7.30904 54.6528L12.7257 54.6007L29.4618 30.5556C38.6632 17.3264 46.2674 6.37153 46.3715 6.19792C46.5278 5.92014 46.25 5.90278 41.632 5.90278L36.7188 5.92014L30.7292 14.5313C27.4306 19.2882 24.6701 23.1424 24.566 23.1424C24.4792 23.125 21.7361 19.2535 18.4722 14.5486L12.5695 5.98959L7.48265 5.9375C3.2639 5.90278 2.43056 5.9375 2.55209 6.12848Z" fill="black"/>
<path d="M57.118 9.89583V13.8889H76.9097H96.7014V9.89583V5.90277H76.9097H57.118V9.89583Z" fill="black"/>
<path d="M72.5695 38.2812V54.6875H76.9097H81.25V38.2812V21.875H76.9097H72.5695V38.2812Z" fill="black"/>
<path d="M31.1632 38.8889C29.8263 40.6771 28.7326 42.2569 28.75 42.3958C28.7673 42.5174 30.6597 45.3299 32.9861 48.6458L37.2048 54.6875H42.2222H47.2395L46.2326 53.2639C39.4444 43.5937 33.802 35.6771 33.7152 35.6424C33.6458 35.625 32.5 37.0833 31.1632 38.8889Z" fill="black"/>
</svg>
