<?xml version="1.0" standalone="no"?>
<!DOCTYPE svg PUBLIC "-//W3C//DTD SVG 20010904//EN"
 "http://www.w3.org/TR/2001/REC-SVG-20010904/DTD/svg10.dtd">
<svg version="1.0" xmlns="http://www.w3.org/2000/svg"
 width="50.000000pt" height="50.000000pt" viewBox="0 0 50.000000 50.000000"
 preserveAspectRatio="xMidYMid meet">

<g transform="translate(0.000000,50.000000) scale(0.100000,-0.100000)"
fill="#000000" stroke="none">
<path d="M136 420 c-15 -5 -37 -16 -47 -26 -25 -22 -57 -112 -65 -180 -6 -48
-4 -58 15 -78 12 -13 43 -29 67 -36 40 -11 46 -11 58 5 18 24 154 25 172 0 17
-22 76 -11 116 23 29 25 30 28 24 83 -7 75 -41 164 -72 188 -29 23 -97 38
-102 22 -5 -14 -102 -15 -102 -1 0 12 -24 12 -64 0z m11 -31 c-51 -27 -41 -35
17 -15 57 20 118 20 171 1 22 -8 44 -15 48 -15 16 0 -5 21 -36 35 -25 11 -26
13 -7 9 66 -15 109 -89 113 -197 2 -42 -2 -52 -23 -68 -35 -26 -80 -35 -80
-17 0 8 11 20 25 26 28 13 35 39 8 27 -108 -46 -158 -46 -265 0 -11 4 -18 3
-18 -4 0 -7 13 -18 29 -24 21 -9 27 -17 22 -26 -11 -17 -71 1 -97 30 -17 19
-18 24 -2 101 20 93 37 124 81 143 48 21 57 17 14 -6z"/>
<path d="M156 274 c-9 -8 -16 -24 -16 -34 0 -22 25 -50 45 -50 20 0 45 28 45
50 0 22 -25 50 -45 50 -7 0 -21 -7 -29 -16z m49 -34 c0 -16 -6 -26 -18 -28
-19 -4 -32 20 -23 44 9 25 41 13 41 -16z"/>
<path d="M286 274 c-9 -8 -16 -24 -16 -34 0 -22 25 -50 45 -50 20 0 45 28 45
50 0 22 -25 50 -45 50 -7 0 -21 -7 -29 -16z m49 -34 c0 -16 -6 -26 -18 -28
-19 -4 -32 20 -23 44 9 25 41 13 41 -16z"/>
</g>
</svg>
