<?xml version="1.0" standalone="no"?>
<!DOCTYPE svg PUBLIC "-//W3C//DTD SVG 20010904//EN"
 "http://www.w3.org/TR/2001/REC-SVG-20010904/DTD/svg10.dtd">
<svg version="1.0" xmlns="http://www.w3.org/2000/svg"
 width="70.000000pt" height="71.000000pt" viewBox="0 0 70.000000 71.000000"
 preserveAspectRatio="xMidYMid meet">

<g transform="translate(0.000000,71.000000) scale(0.100000,-0.100000)"
fill="#000000" stroke="none">
<path d="M232 584 c-178 -89 -191 -343 -24 -454 54 -35 77 -35 77 0 0 21 -5
26 -32 28 -23 2 -39 12 -55 35 -12 18 -26 34 -30 35 -11 5 -10 22 2 22 5 0 23
-14 40 -30 35 -34 65 -38 79 -11 12 21 5 31 -21 31 -53 0 -104 103 -78 158 7
15 14 44 15 65 3 48 6 50 41 36 43 -17 174 -17 207 -1 34 17 40 12 42 -30 1
-18 7 -46 14 -63 25 -61 -8 -142 -67 -159 l-31 -10 6 -65 c3 -36 7 -68 9 -70
8 -9 67 25 102 58 130 127 102 340 -57 423 -73 38 -164 39 -239 2z"/>
</g>
</svg>
